<mxfile host="app.diagrams.net" modified="2024-03-19T01:17:39.770Z" agent="Mozilla/5.0 (Windows NT 10.0; Win64; x64; rv:123.0) Gecko/20100101 Firefox/123.0" etag="oNi0BpFXWDFs2k0cAu0J" version="24.0.7" type="github" pages="2">
  <diagram name="Project Roles and Questions" id="mvEKeH33gYkc5exR3Xjp">
    <mxGraphModel dx="843" dy="419" grid="1" gridSize="10" guides="1" tooltips="1" connect="1" arrows="1" fold="1" page="1" pageScale="1" pageWidth="850" pageHeight="1100" math="0" shadow="0">
      <root>
        <mxCell id="0" />
        <mxCell id="1" parent="0" />
        <mxCell id="aAgDK6z0vsBKXwgvIZQg-9" style="edgeStyle=orthogonalEdgeStyle;rounded=0;orthogonalLoop=1;jettySize=auto;html=1;entryX=0;entryY=0.5;entryDx=0;entryDy=0;exitX=0.925;exitY=0.568;exitDx=0;exitDy=0;exitPerimeter=0;" parent="1" source="aAgDK6z0vsBKXwgvIZQg-12" target="aAgDK6z0vsBKXwgvIZQg-8" edge="1">
          <mxGeometry relative="1" as="geometry">
            <mxPoint x="190" y="225" as="sourcePoint" />
          </mxGeometry>
        </mxCell>
        <mxCell id="aAgDK6z0vsBKXwgvIZQg-13" style="edgeStyle=orthogonalEdgeStyle;rounded=0;orthogonalLoop=1;jettySize=auto;html=1;entryX=0;entryY=0.5;entryDx=0;entryDy=0;" parent="1" source="aAgDK6z0vsBKXwgvIZQg-8" target="aAgDK6z0vsBKXwgvIZQg-11" edge="1">
          <mxGeometry relative="1" as="geometry" />
        </mxCell>
        <mxCell id="aAgDK6z0vsBKXwgvIZQg-8" value="Step 1" style="rounded=0;whiteSpace=wrap;html=1;" parent="1" vertex="1">
          <mxGeometry x="230" y="214" width="90" height="30" as="geometry" />
        </mxCell>
        <mxCell id="aAgDK6z0vsBKXwgvIZQg-16" style="edgeStyle=orthogonalEdgeStyle;rounded=0;orthogonalLoop=1;jettySize=auto;html=1;" parent="1" source="aAgDK6z0vsBKXwgvIZQg-10" target="aAgDK6z0vsBKXwgvIZQg-27" edge="1">
          <mxGeometry relative="1" as="geometry">
            <mxPoint x="590" y="225" as="targetPoint" />
          </mxGeometry>
        </mxCell>
        <mxCell id="aAgDK6z0vsBKXwgvIZQg-10" value="Step 3" style="rounded=0;whiteSpace=wrap;html=1;" parent="1" vertex="1">
          <mxGeometry x="469" y="214" width="90" height="30" as="geometry" />
        </mxCell>
        <mxCell id="aAgDK6z0vsBKXwgvIZQg-14" style="edgeStyle=orthogonalEdgeStyle;rounded=0;orthogonalLoop=1;jettySize=auto;html=1;" parent="1" source="aAgDK6z0vsBKXwgvIZQg-11" target="aAgDK6z0vsBKXwgvIZQg-10" edge="1">
          <mxGeometry relative="1" as="geometry" />
        </mxCell>
        <mxCell id="aAgDK6z0vsBKXwgvIZQg-11" value="Step 2" style="rounded=0;whiteSpace=wrap;html=1;" parent="1" vertex="1">
          <mxGeometry x="350" y="214" width="90" height="30" as="geometry" />
        </mxCell>
        <mxCell id="aAgDK6z0vsBKXwgvIZQg-12" value="?&lt;br&gt;1" style="ellipse;whiteSpace=wrap;html=1;aspect=fixed;" parent="1" vertex="1">
          <mxGeometry x="130" y="197.5" width="55" height="55" as="geometry" />
        </mxCell>
        <mxCell id="aAgDK6z0vsBKXwgvIZQg-21" value="Role 2" style="shape=umlActor;verticalLabelPosition=bottom;verticalAlign=top;html=1;outlineConnect=0;" parent="1" vertex="1">
          <mxGeometry x="370" y="120" width="30" height="60" as="geometry" />
        </mxCell>
        <mxCell id="aAgDK6z0vsBKXwgvIZQg-22" value="Role 1" style="shape=umlActor;verticalLabelPosition=bottom;verticalAlign=top;html=1;outlineConnect=0;" parent="1" vertex="1">
          <mxGeometry x="260" y="120" width="30" height="60" as="geometry" />
        </mxCell>
        <mxCell id="aAgDK6z0vsBKXwgvIZQg-24" value="Role 2" style="shape=umlActor;verticalLabelPosition=bottom;verticalAlign=top;html=1;outlineConnect=0;" parent="1" vertex="1">
          <mxGeometry x="480" y="120" width="30" height="60" as="geometry" />
        </mxCell>
        <mxCell id="aAgDK6z0vsBKXwgvIZQg-25" value="?&lt;br&gt;2" style="ellipse;whiteSpace=wrap;html=1;aspect=fixed;" parent="1" vertex="1">
          <mxGeometry x="130" y="260" width="55" height="55" as="geometry" />
        </mxCell>
        <mxCell id="aAgDK6z0vsBKXwgvIZQg-26" value="?&lt;br&gt;3" style="ellipse;whiteSpace=wrap;html=1;aspect=fixed;" parent="1" vertex="1">
          <mxGeometry x="130" y="325" width="55" height="55" as="geometry" />
        </mxCell>
        <mxCell id="aAgDK6z0vsBKXwgvIZQg-27" value="Answer&lt;br&gt;1" style="ellipse;whiteSpace=wrap;html=1;aspect=fixed;" parent="1" vertex="1">
          <mxGeometry x="600" y="201.25" width="55" height="55" as="geometry" />
        </mxCell>
        <mxCell id="aAgDK6z0vsBKXwgvIZQg-28" value="Answer&lt;br&gt;2" style="ellipse;whiteSpace=wrap;html=1;aspect=fixed;" parent="1" vertex="1">
          <mxGeometry x="600" y="262.75" width="55" height="55" as="geometry" />
        </mxCell>
        <mxCell id="aAgDK6z0vsBKXwgvIZQg-29" value="Answer&lt;br&gt;3" style="ellipse;whiteSpace=wrap;html=1;aspect=fixed;" parent="1" vertex="1">
          <mxGeometry x="600" y="323.75" width="55" height="55" as="geometry" />
        </mxCell>
        <mxCell id="aAgDK6z0vsBKXwgvIZQg-30" value="Story&lt;br&gt;1.&amp;nbsp; User&lt;br&gt;2. Wants&lt;br&gt;3.&amp;nbsp; For what benefit" style="whiteSpace=wrap;html=1;shape=mxgraph.basic.document" parent="1" vertex="1">
          <mxGeometry x="70" y="80" width="130" height="70" as="geometry" />
        </mxCell>
        <mxCell id="u2mxl_-AWD4z3qXQZF-H-1" value="&lt;ol&gt;&lt;li&gt;Who is asking&lt;/li&gt;&lt;li&gt;What are they asking?&lt;/li&gt;&lt;li&gt;Where is this needed?&amp;nbsp; Scope.&lt;/li&gt;&lt;li&gt;When is it needed?&lt;/li&gt;&lt;li&gt;Why is it needed?&lt;/li&gt;&lt;li&gt;How will it be delivered?&lt;/li&gt;&lt;/ol&gt;" style="whiteSpace=wrap;html=1;shape=mxgraph.basic.document" vertex="1" parent="1">
          <mxGeometry x="580" y="10" width="240" height="140" as="geometry" />
        </mxCell>
      </root>
    </mxGraphModel>
  </diagram>
  <diagram id="Q7vRBFi5Mqy7PUZiT2t7" name="Reporting Process">
    <mxGraphModel dx="1222" dy="608" grid="1" gridSize="10" guides="1" tooltips="1" connect="1" arrows="1" fold="1" page="1" pageScale="1" pageWidth="850" pageHeight="1100" math="0" shadow="0">
      <root>
        <mxCell id="0" />
        <mxCell id="1" parent="0" />
        <mxCell id="yykyZ9t0gVlzGU83h76o-5" style="edgeStyle=orthogonalEdgeStyle;rounded=0;orthogonalLoop=1;jettySize=auto;html=1;" edge="1" parent="1" source="yykyZ9t0gVlzGU83h76o-1" target="yykyZ9t0gVlzGU83h76o-4">
          <mxGeometry relative="1" as="geometry" />
        </mxCell>
        <mxCell id="yykyZ9t0gVlzGU83h76o-1" value="Raw Dataset 1" style="shape=document;whiteSpace=wrap;html=1;boundedLbl=1;" vertex="1" parent="1">
          <mxGeometry x="90" y="150" width="120" height="80" as="geometry" />
        </mxCell>
        <mxCell id="yykyZ9t0gVlzGU83h76o-9" style="edgeStyle=orthogonalEdgeStyle;rounded=0;orthogonalLoop=1;jettySize=auto;html=1;" edge="1" parent="1" source="yykyZ9t0gVlzGU83h76o-2" target="yykyZ9t0gVlzGU83h76o-6">
          <mxGeometry relative="1" as="geometry" />
        </mxCell>
        <mxCell id="yykyZ9t0gVlzGU83h76o-2" value="Raw Dataset 2" style="shape=document;whiteSpace=wrap;html=1;boundedLbl=1;" vertex="1" parent="1">
          <mxGeometry x="90" y="260" width="120" height="80" as="geometry" />
        </mxCell>
        <mxCell id="yykyZ9t0gVlzGU83h76o-10" style="edgeStyle=orthogonalEdgeStyle;rounded=0;orthogonalLoop=1;jettySize=auto;html=1;" edge="1" parent="1" source="yykyZ9t0gVlzGU83h76o-3" target="yykyZ9t0gVlzGU83h76o-7">
          <mxGeometry relative="1" as="geometry" />
        </mxCell>
        <mxCell id="yykyZ9t0gVlzGU83h76o-3" value="Raw Dataset ..." style="shape=document;whiteSpace=wrap;html=1;boundedLbl=1;" vertex="1" parent="1">
          <mxGeometry x="90" y="380" width="120" height="80" as="geometry" />
        </mxCell>
        <mxCell id="yykyZ9t0gVlzGU83h76o-14" style="edgeStyle=orthogonalEdgeStyle;rounded=0;orthogonalLoop=1;jettySize=auto;html=1;" edge="1" parent="1" source="yykyZ9t0gVlzGU83h76o-4" target="yykyZ9t0gVlzGU83h76o-11">
          <mxGeometry relative="1" as="geometry" />
        </mxCell>
        <mxCell id="yykyZ9t0gVlzGU83h76o-4" value="Notebook for Cleaning" style="shape=process;whiteSpace=wrap;html=1;backgroundOutline=1;" vertex="1" parent="1">
          <mxGeometry x="240" y="160" width="120" height="60" as="geometry" />
        </mxCell>
        <mxCell id="yykyZ9t0gVlzGU83h76o-15" style="edgeStyle=orthogonalEdgeStyle;rounded=0;orthogonalLoop=1;jettySize=auto;html=1;" edge="1" parent="1" source="yykyZ9t0gVlzGU83h76o-6" target="yykyZ9t0gVlzGU83h76o-12">
          <mxGeometry relative="1" as="geometry" />
        </mxCell>
        <mxCell id="yykyZ9t0gVlzGU83h76o-6" value="Notebook for Cleaning" style="shape=process;whiteSpace=wrap;html=1;backgroundOutline=1;" vertex="1" parent="1">
          <mxGeometry x="250" y="270" width="120" height="60" as="geometry" />
        </mxCell>
        <mxCell id="yykyZ9t0gVlzGU83h76o-16" style="edgeStyle=orthogonalEdgeStyle;rounded=0;orthogonalLoop=1;jettySize=auto;html=1;" edge="1" parent="1" source="yykyZ9t0gVlzGU83h76o-7" target="yykyZ9t0gVlzGU83h76o-13">
          <mxGeometry relative="1" as="geometry" />
        </mxCell>
        <mxCell id="yykyZ9t0gVlzGU83h76o-7" value="Notebook for Cleaning" style="shape=process;whiteSpace=wrap;html=1;backgroundOutline=1;" vertex="1" parent="1">
          <mxGeometry x="260" y="390" width="120" height="60" as="geometry" />
        </mxCell>
        <mxCell id="yykyZ9t0gVlzGU83h76o-11" value="clean Dataset 1" style="shape=document;whiteSpace=wrap;html=1;boundedLbl=1;" vertex="1" parent="1">
          <mxGeometry x="410" y="150" width="120" height="80" as="geometry" />
        </mxCell>
        <mxCell id="yykyZ9t0gVlzGU83h76o-18" style="edgeStyle=orthogonalEdgeStyle;rounded=0;orthogonalLoop=1;jettySize=auto;html=1;" edge="1" parent="1" source="yykyZ9t0gVlzGU83h76o-12" target="yykyZ9t0gVlzGU83h76o-17">
          <mxGeometry relative="1" as="geometry" />
        </mxCell>
        <mxCell id="yykyZ9t0gVlzGU83h76o-12" value="clean Dataset 2" style="shape=document;whiteSpace=wrap;html=1;boundedLbl=1;" vertex="1" parent="1">
          <mxGeometry x="410" y="260" width="120" height="80" as="geometry" />
        </mxCell>
        <mxCell id="yykyZ9t0gVlzGU83h76o-13" value="clean Dataset ..." style="shape=document;whiteSpace=wrap;html=1;boundedLbl=1;" vertex="1" parent="1">
          <mxGeometry x="410" y="380" width="120" height="80" as="geometry" />
        </mxCell>
        <mxCell id="yykyZ9t0gVlzGU83h76o-22" style="edgeStyle=orthogonalEdgeStyle;rounded=0;orthogonalLoop=1;jettySize=auto;html=1;entryX=0;entryY=0.5;entryDx=0;entryDy=0;" edge="1" parent="1" source="yykyZ9t0gVlzGU83h76o-17" target="yykyZ9t0gVlzGU83h76o-19">
          <mxGeometry relative="1" as="geometry" />
        </mxCell>
        <mxCell id="yykyZ9t0gVlzGU83h76o-23" style="edgeStyle=orthogonalEdgeStyle;rounded=0;orthogonalLoop=1;jettySize=auto;html=1;" edge="1" parent="1" source="yykyZ9t0gVlzGU83h76o-17" target="yykyZ9t0gVlzGU83h76o-20">
          <mxGeometry relative="1" as="geometry" />
        </mxCell>
        <mxCell id="yykyZ9t0gVlzGU83h76o-24" style="edgeStyle=orthogonalEdgeStyle;rounded=0;orthogonalLoop=1;jettySize=auto;html=1;entryX=0;entryY=0.5;entryDx=0;entryDy=0;" edge="1" parent="1" source="yykyZ9t0gVlzGU83h76o-17" target="yykyZ9t0gVlzGU83h76o-21">
          <mxGeometry relative="1" as="geometry" />
        </mxCell>
        <mxCell id="yykyZ9t0gVlzGU83h76o-17" value="Merge Notebook" style="shape=process;whiteSpace=wrap;html=1;backgroundOutline=1;" vertex="1" parent="1">
          <mxGeometry x="570" y="270" width="120" height="60" as="geometry" />
        </mxCell>
        <mxCell id="yykyZ9t0gVlzGU83h76o-30" style="edgeStyle=orthogonalEdgeStyle;rounded=0;orthogonalLoop=1;jettySize=auto;html=1;" edge="1" parent="1" source="yykyZ9t0gVlzGU83h76o-19" target="yykyZ9t0gVlzGU83h76o-25">
          <mxGeometry relative="1" as="geometry" />
        </mxCell>
        <mxCell id="yykyZ9t0gVlzGU83h76o-19" value="Notebook for Cleaning" style="shape=process;whiteSpace=wrap;html=1;backgroundOutline=1;" vertex="1" parent="1">
          <mxGeometry x="750" y="190" width="120" height="60" as="geometry" />
        </mxCell>
        <mxCell id="yykyZ9t0gVlzGU83h76o-31" style="edgeStyle=orthogonalEdgeStyle;rounded=0;orthogonalLoop=1;jettySize=auto;html=1;" edge="1" parent="1" source="yykyZ9t0gVlzGU83h76o-20" target="yykyZ9t0gVlzGU83h76o-29">
          <mxGeometry relative="1" as="geometry" />
        </mxCell>
        <mxCell id="yykyZ9t0gVlzGU83h76o-20" value="Notebook for Cleaning" style="shape=process;whiteSpace=wrap;html=1;backgroundOutline=1;" vertex="1" parent="1">
          <mxGeometry x="750" y="270" width="120" height="60" as="geometry" />
        </mxCell>
        <mxCell id="yykyZ9t0gVlzGU83h76o-32" style="edgeStyle=orthogonalEdgeStyle;rounded=0;orthogonalLoop=1;jettySize=auto;html=1;" edge="1" parent="1" source="yykyZ9t0gVlzGU83h76o-21" target="yykyZ9t0gVlzGU83h76o-28">
          <mxGeometry relative="1" as="geometry" />
        </mxCell>
        <mxCell id="yykyZ9t0gVlzGU83h76o-21" value="Notebook for Cleaning" style="shape=process;whiteSpace=wrap;html=1;backgroundOutline=1;" vertex="1" parent="1">
          <mxGeometry x="750" y="340" width="120" height="60" as="geometry" />
        </mxCell>
        <mxCell id="yykyZ9t0gVlzGU83h76o-25" value="Findings 1" style="shape=document;whiteSpace=wrap;html=1;boundedLbl=1;" vertex="1" parent="1">
          <mxGeometry x="910" y="195" width="120" height="50" as="geometry" />
        </mxCell>
        <mxCell id="yykyZ9t0gVlzGU83h76o-28" value="Findings 3" style="shape=document;whiteSpace=wrap;html=1;boundedLbl=1;" vertex="1" parent="1">
          <mxGeometry x="920" y="345" width="120" height="50" as="geometry" />
        </mxCell>
        <mxCell id="yykyZ9t0gVlzGU83h76o-29" value="Findings 2" style="shape=document;whiteSpace=wrap;html=1;boundedLbl=1;" vertex="1" parent="1">
          <mxGeometry x="910" y="275" width="120" height="50" as="geometry" />
        </mxCell>
      </root>
    </mxGraphModel>
  </diagram>
</mxfile>
